<?xml version="1.0" encoding="UTF-8"?>
<svg version="1.1" xmlns="http://www.w3.org/2000/svg" width="796" height="313">
<path d="M0 0 C1.23298828 -0.020625 2.46597656 -0.04125 3.73632812 -0.0625 C10.13143248 -0.08981491 15.55654155 0.19406718 21.5222168 2.60253906 C23.2003907 3.37079124 23.2003907 3.37079124 25.1875 3.25 C25.5175 2.92 25.8475 2.59 26.1875 2.25 C28.93227321 2.06860112 31.62783412 1.97175394 34.375 1.9375 C35.13103516 1.90849609 35.88707031 1.87949219 36.66601562 1.84960938 C42.1347368 1.7879499 44.92801819 2.80573002 49.1875 6.25 C48.57472388 9.21175123 47.93377478 10.63058783 46.1875 13.25 C45.73424217 15.52748072 45.36908466 17.82318182 45.0625 20.125 C44.81113281 21.94644531 44.81113281 21.94644531 44.5546875 23.8046875 C44.25014688 26.66218568 44.11116706 29.38206247 44.1875 32.25 C48.54167844 25.63346775 51.93733036 20.16831171 52.1171875 12.11328125 C52.1875 10.25 52.1875 10.25 53.1875 9.25 C57.25154169 8.54746325 60.8090299 8.51170076 64.4921875 10.484375 C67.70919081 12.86472177 69.95171351 14.89632026 72.1875 18.25 C71.8125 20.4375 71.8125 20.4375 71.1875 22.25 C71.75339844 22.57613281 72.31929687 22.90226562 72.90234375 23.23828125 C73.63582031 23.67527344 74.36929688 24.11226562 75.125 24.5625 C76.22134766 25.20638672 76.22134766 25.20638672 77.33984375 25.86328125 C79.1875 27.25 79.1875 27.25 80.1875 30.25 C80.8475 30.25 81.5075 30.25 82.1875 30.25 C83.1775 34.705 83.1775 34.705 84.1875 39.25 C82.5625 40.875 82.5625 40.875 80.1875 42.25 C76.29548661 41.45571155 73.71855083 40.34350657 71.1875 37.25 C72.33923355 39.71800047 73.23533565 41.29783565 75.1875 43.25 C76.57344652 47.4704307 76.76936706 51.86175255 76.1875 56.25 C73.75565739 59.76266155 71.09386639 60.77191542 67.1875 62.25 C66.8575 62.91 66.5275 63.57 66.1875 64.25 C64.125 64.875 64.125 64.875 62.1875 65.25 C62.90035156 66.30316406 63.61320313 67.35632813 64.34765625 68.44140625 C82.60684579 95.7823248 82.60684579 95.7823248 80.6875 109.9375 C78.6498793 114.43724571 76.77487854 117.19584157 72.1875 119.25 C67.10675267 119.9610875 62.26893964 120.14229385 57.1875 119.25 C54.73046875 117.2109375 54.73046875 117.2109375 53.1875 115.25 C52.8575 115.91 52.5275 116.57 52.1875 117.25 C46.88661505 119.01696165 41.2210392 118.14593569 35.6875 117.9375 C34.43839844 117.90205078 33.18929687 117.86660156 31.90234375 117.83007812 C30.10990234 117.76530273 30.10990234 117.76530273 28.28125 117.69921875 C26.63672852 117.64254028 26.63672852 117.64254028 24.95898438 117.5847168 C22.1875 117.25 22.1875 117.25 19.1875 115.25 C18.58842032 110.37177972 18.93348484 107.4101022 21.1875 103.0625 C23.95956377 97.39012752 24.07764276 91.44090281 23.1875 85.25 C22.2107075 83.56962677 21.2143343 81.9002694 20.1875 80.25 C21 77.4375 21 77.4375 22.1875 75.25 C23.85361905 75.207279 25.52132885 75.20936168 27.1875 75.25 C27.5175 75.58 27.8475 75.91 28.1875 76.25 C30.52773315 75.96917202 32.86055036 75.62531446 35.1875 75.25 C37.52083333 74.91666667 39.85416667 74.58333333 42.1875 74.25 C43.33203125 75.77734375 43.33203125 75.77734375 44.1875 78.25 C43.53683608 80.89093003 42.80403264 83.27384001 41.875 85.8125 C39.65157844 92.30979064 38.34855701 98.3391901 38.1875 105.25 C43.20285052 104.92039784 43.20285052 104.92039784 47.1875 102.25 C48.1775 102.25 49.1675 102.25 50.1875 102.25 C50.3421875 101.1671875 50.3421875 101.1671875 50.5 100.0625 C51.1875 97.25 51.1875 97.25 52.8203125 95.0625 C54.70261203 91.19034096 53.80887639 88.41238634 52.75 84.4375 C52.46999146 83.2937793 52.46999146 83.2937793 52.18432617 82.12695312 C51.76773529 80.43710077 51.34184018 78.74952346 50.90820312 77.06396484 C50.11876644 73.98163177 49.36241873 70.89219984 48.609375 67.80078125 C47.56797524 63.55231135 46.52324862 59.3048169 45.45703125 55.0625 C45.12602417 53.74185547 45.12602417 53.74185547 44.78833008 52.39453125 C44.25295764 50.22313789 44.25295764 50.22313789 43.1875 48.25 C42.1975 48.25 41.2075 48.25 40.1875 48.25 C38.93273793 50.75952414 39.11944076 52.38577284 39.1953125 55.1875 C39.21207031 56.16460937 39.22882813 57.14171875 39.24609375 58.1484375 C39.29036848 60.21632777 39.34245404 62.28406555 39.40234375 64.3515625 C39.41652344 65.32867187 39.43070312 66.30578125 39.4453125 67.3125 C39.4673877 68.21097656 39.48946289 69.10945313 39.51220703 70.03515625 C39.40505371 70.76605469 39.29790039 71.49695313 39.1875 72.25 C35.85848317 74.46934455 34.69956363 74.52129898 30.8125 74.5 C29.40871094 74.50773437 29.40871094 74.50773437 27.9765625 74.515625 C25.00861105 74.23296296 22.84699489 73.5844462 20.1875 72.25 C19.8575 71.59 19.5275 70.93 19.1875 70.25 C18.1975 70.25 17.2075 70.25 16.1875 70.25 C16.0225 70.889375 15.8575 71.52875 15.6875 72.1875 C14.1875 74.25 14.1875 74.25 12.37890625 74.80859375 C6.77475619 75.64150413 6.77475619 75.64150413 3.1875 73.25 C4.92034669 81.76982956 6.82605247 90.61349936 10.7890625 98.39453125 C12.65327942 102.20107474 12.94058143 105.10391432 12.1875 109.25 C10.15710499 113.09324769 8.0694364 116.20120023 4.1875 118.25 C-1.59339564 119.69522391 -4.84901453 119.28759236 -10.1484375 116.6484375 C-12.43062314 114.73054441 -13.01605229 113.10978376 -13.8125 110.25 C-13.82421875 107.42578125 -13.82421875 107.42578125 -13.5 104.5625 C-13.35111328 103.13357422 -13.35111328 103.13357422 -13.19921875 101.67578125 C-12.8125 99.25 -12.8125 99.25 -11.8125 97.25 C-11.74184383 95.20944995 -11.72828024 93.16665743 -11.75 91.125 C-11.75902344 90.02929688 -11.76804687 88.93359375 -11.77734375 87.8046875 C-11.78894531 86.96164063 -11.80054687 86.11859375 -11.8125 85.25 C-15.68013446 83.37456646 -15.68013446 83.37456646 -19.8125 84.25 C-19.99425781 85.35408203 -19.99425781 85.35408203 -20.1796875 86.48046875 C-20.34726563 87.45628906 -20.51484375 88.43210937 -20.6875 89.4375 C-20.84992188 90.40042969 -21.01234375 91.36335938 -21.1796875 92.35546875 C-21.8125 95.25 -21.8125 95.25 -22.85546875 97.63671875 C-24.52844432 102.20496632 -24.22425945 107.02971355 -24.37109375 111.8515625 C-24.8125 115.25 -24.8125 115.25 -26.13671875 117.1953125 C-29.49073294 119.30623052 -33.52162289 118.5147953 -37.25 117.75 C-39.64213836 117.2832413 -41.52098788 117.27816345 -43.9375 117.375 C-47.8125 117.25 -47.8125 117.25 -49.75 115.9375 C-50.8125 114.25 -50.8125 114.25 -51.8125 111.25 C-52.658125 111.765625 -53.50375 112.28125 -54.375 112.8125 C-58.53463754 114.55198479 -60.48646453 114.4087595 -64.8125 113.25 C-71.99341951 109.95874523 -75.87534044 102.83800948 -78.8515625 95.7890625 C-81.24212471 88.134434 -81.6408589 80.05670649 -82.33984375 72.109375 C-82.69079749 68.23770701 -83.24300138 64.45202736 -83.9375 60.625 C-86.35847821 45.43531412 -85.99258665 30.58079218 -77.1875 17.4375 C-75.3984375 14.98046875 -75.3984375 14.98046875 -73.8125 13.25 C-73.1525 13.25 -72.4925 13.25 -71.8125 13.25 C-71.8125 12.59 -71.8125 11.93 -71.8125 11.25 C-63.05431382 4.13397373 -53.10081387 1.19345831 -41.8125 2.25 C-36.98104217 3.35673205 -33.16949558 4.48129742 -29.8125 8.25 C-29.6475 7.651875 -29.4825 7.05375 -29.3125 6.4375 C-26.56063538 2.42436409 -21.67045864 1.60617353 -17.07055664 0.72436523 C-11.40136015 -0.10105618 -5.71967357 0.02369621 0 0 Z M24.1875 7.25 C25.1875 9.25 25.1875 9.25 25.1875 9.25 Z M-26.8125 12.25 C-25.8125 14.25 -25.8125 14.25 -25.8125 14.25 Z M-25.8125 14.25 C-24.8125 17.25 -24.8125 17.25 -24.8125 17.25 Z M24.1875 15.25 C23.8575 15.58 23.5275 15.91 23.1875 16.25 C21.45833078 16.27062042 19.72845974 16.2411499 18 16.1875 C13.64524062 16.13646766 10.24067173 16.49727709 6.1875 18.25 C5.90305711 22.33430812 6.65940121 24.68630814 8.625 28.25 C10.46814273 31.61071609 11.59748097 34.45217636 12.1875 38.25 C12.5175 38.25 12.8475 38.25 13.1875 38.25 C13.5175 35.94 13.8475 33.63 14.1875 31.25 C15.05375 31.435625 15.92 31.62125 16.8125 31.8125 C20.23902628 32.25667933 22.82962371 31.96954492 26.1875 31.25 C26.5175 33.56 26.8475 35.87 27.1875 38.25 C27.5175 38.25 27.8475 38.25 28.1875 38.25 C29.54724178 32.2760525 31.23450711 23.83584113 28.0703125 18.29296875 C26.59599265 16.766157 26.59599265 16.766157 24.1875 15.25 Z M-26.8125 22.25 C-27.4725 23.9 -28.1325 25.55 -28.8125 27.25 C-28.1525 27.085 -27.4925 26.92 -26.8125 26.75 C-19.12384374 25.46855729 -13.54114156 26.21575977 -6.8125 30.25 C-6.4825 30.91 -6.1525 31.57 -5.8125 32.25 C-5.1525 32.25 -4.4925 32.25 -3.8125 32.25 C-4.75603029 28.85329097 -5.64594465 27.38645499 -8.40625 25.125 C-12.249721 23.00932789 -15.40237548 22.59134955 -19.6875 22.5 C-20.72003906 22.45552734 -20.72003906 22.45552734 -21.7734375 22.41015625 C-23.45251626 22.34019464 -25.13250812 22.29274789 -26.8125 22.25 Z M-30.8125 28.25 C-29.8125 30.25 -29.8125 30.25 -29.8125 30.25 Z M-3.8125 32.25 C-3.4825 33.9 -3.1525 35.55 -2.8125 37.25 C-2.4825 36.26 -2.1525 35.27 -1.8125 34.25 C-2.4725 33.59 -3.1325 32.93 -3.8125 32.25 Z M-26.8125 33.25 C-25.73848892 36.16517292 -25.03439824 38.02810176 -22.8125 40.25 C-23.08284634 37.81282742 -23.08284634 37.81282742 -23.8125 35.25 C-24.8025 34.59 -25.7925 33.93 -26.8125 33.25 Z M55.1875 33.25 C51.52383785 41.45660323 51.99038408 46.72435754 55.1875 55.25 C55.5175 55.25 55.8475 55.25 56.1875 55.25 C56.1875 53.6 56.1875 51.95 56.1875 50.25 C59.6525 49.755 59.6525 49.755 63.1875 49.25 C64.24793651 47.15504697 64.24793651 47.15504697 64.1875 44.25 C61.78164549 40.10030464 58.61912302 36.57826089 55.1875 33.25 Z M-22.8125 40.25 C-22.8125 44.54 -22.8125 48.83 -22.8125 53.25 C-22.4825 53.25 -22.1525 53.25 -21.8125 53.25 C-21.5888663 51.83566794 -21.38423524 50.41832382 -21.1875 49 C-21.07148437 48.21109375 -20.95546875 47.4221875 -20.8359375 46.609375 C-20.62923006 43.85641299 -20.62923006 43.85641299 -22.8125 40.25 Z M-1.8125 42.25 C-1.8125 43.9 -1.8125 45.55 -1.8125 47.25 C-1.4825 47.25 -1.1525 47.25 -0.8125 47.25 C-0.8125 45.6 -0.8125 43.95 -0.8125 42.25 C-1.1425 42.25 -1.4725 42.25 -1.8125 42.25 Z M26.1875 42.25 C27.1875 44.25 27.1875 44.25 27.1875 44.25 Z M25.1875 50.25 C26.1875 52.25 26.1875 52.25 26.1875 52.25 Z M-12.8125 51.25 C-12.8125 51.91 -12.8125 52.57 -12.8125 53.25 C-13.4725 53.25 -14.1325 53.25 -14.8125 53.25 C-14.8125 53.91 -14.8125 54.57 -14.8125 55.25 C-15.8025 55.58 -16.7925 55.91 -17.8125 56.25 C-18.03461116 58.18596892 -18.23972992 60.12389328 -18.4375 62.0625 C-18.55351563 63.14144531 -18.66953125 64.22039062 -18.7890625 65.33203125 C-19.08710156 68.44624332 -19.08710156 68.44624332 -16.8125 71.25 C-11.64051911 71.92796698 -11.64051911 71.92796698 -7.05078125 70.0546875 C-4.87281681 66.88049327 -5.85221458 63.72157212 -6.28515625 60.05859375 C-6.96898652 56.4165644 -8.13025618 53.5413466 -9.8125 50.25 C-11.0361068 50.1754644 -11.0361068 50.1754644 -12.8125 51.25 Z M13.1875 51.25 C14.1875 54.25 14.1875 54.25 14.1875 54.25 Z M24.1875 54.25 C25.1875 57.25 25.1875 57.25 25.1875 57.25 Z M-23.8125 56.25 C-22.8125 58.25 -22.8125 58.25 -22.8125 58.25 Z M24.1875 62.25 C25.1875 65.25 25.1875 65.25 25.1875 65.25 Z M-56.8125 64.25 C-58.79858699 65.96525694 -59.76939457 67.13299954 -60.6875 69.625 C-62.10210353 72.92574157 -64.29092129 74.72842129 -66.8125 77.25 C-68.05035809 80.65221119 -68.01266541 84.09525687 -68.0625 87.6875 C-68.08828125 88.79996094 -68.1140625 89.91242188 -68.140625 91.05859375 C-67.77660403 94.59913108 -66.92178724 96.41564527 -64.8125 99.25 C-62.61831563 100.92778312 -62.61831563 100.92778312 -59.8125 101.25 C-57.27670066 100.50138564 -55.18796774 99.46102277 -52.8125 98.25 C-53.4725 100.23 -54.1325 102.21 -54.8125 104.25 C-53.4925 104.25 -52.1725 104.25 -50.8125 104.25 C-50.4825 103.26 -50.1525 102.27 -49.8125 101.25 C-48.8225 100.755 -48.8225 100.755 -47.8125 100.25 C-47.4825 101.24 -47.1525 102.23 -46.8125 103.25 C-42.82148885 96.2703712 -41.69436084 90.6570614 -41.9375 82.6875 C-42.0155843 78.18984422 -40.84596951 75.23221112 -38.8125 71.25 C-39.52535156 71.07984375 -40.23820312 70.9096875 -40.97265625 70.734375 C-46.86996799 69.24218845 -51.69619912 67.54717168 -56.8125 64.25 Z M55.1875 108.25 C56.1875 110.25 56.1875 110.25 56.1875 110.25 Z " fill="#5A1A1A" transform="translate(101.8125,91.75)"/>
<path d="M0 0 C0.80244141 0.04833984 1.60488281 0.09667969 2.43164062 0.14648438 C3.68170898 0.2305957 3.68170898 0.2305957 4.95703125 0.31640625 C6.22450195 0.3947168 6.22450195 0.3947168 7.51757812 0.47460938 C9.60189424 0.60414314 11.68576307 0.74083802 13.76953125 0.87890625 C13.77983871 1.97249451 13.79014618 3.06608276 13.80076599 4.19281006 C13.89847232 14.4929211 14.00120386 24.79297136 14.10887051 35.09298325 C14.16406257 40.38846513 14.2174767 45.68395256 14.2668457 50.97949219 C14.31454398 56.08883729 14.36688887 61.19811548 14.422472 66.30738068 C14.44287077 68.25781847 14.46158793 70.20827459 14.47860527 72.15874481 C14.50270406 74.88812388 14.53275125 77.61737691 14.56420898 80.34667969 C14.57284218 81.55940552 14.57284218 81.55940552 14.58164978 82.79663086 C14.62764489 86.30162859 14.69281642 89.53108499 15.76953125 92.87890625 C17.39803075 94.0731084 17.39803075 94.0731084 19.76953125 94.87890625 C20.3625 95.13800781 20.95546875 95.39710938 21.56640625 95.6640625 C27.25692065 98.03511017 31.91099293 98.90798005 37.89453125 96.75390625 C43.19784829 93.29522123 46.45668091 89.08510784 47.76953125 82.87890625 C48.53103553 75.91992864 47.72118753 70.71872593 43.76953125 64.87890625 C41.38102463 62.05612569 40.28896996 61.05205249 36.76953125 59.87890625 C31.5850328 59.46142791 27.55515156 59.75196389 22.76953125 61.87890625 C19.95703125 62.00390625 19.95703125 62.00390625 17.76953125 61.87890625 C17.43953125 60.88890625 17.10953125 59.89890625 16.76953125 58.87890625 C20.66426806 54.36101155 24.66895912 52.33210131 30.46875 51.484375 C38.71730656 51.02073064 45.00226 53.17690593 51.76953125 57.87890625 C57.61485447 63.37835235 60.07223948 70.34650973 61.26953125 78.12890625 C60.00531639 87.61051771 56.70972167 95.40213482 49.0859375 101.35546875 C42.3350204 105.79536364 35.81481481 106.9166474 27.76953125 105.87890625 C22.84359515 104.40734329 18.34453597 102.19246217 13.76953125 99.87890625 C13.43953125 101.19890625 13.10953125 102.51890625 12.76953125 103.87890625 C6.49953125 103.87890625 0.22953125 103.87890625 -6.23046875 103.87890625 C-6.72546875 101.40390625 -6.72546875 101.40390625 -7.23046875 98.87890625 C-5.52890625 98.47671875 -5.52890625 98.47671875 -3.79296875 98.06640625 C-2.02953125 97.47859375 -2.02953125 97.47859375 -0.23046875 96.87890625 C1.01646978 93.13809067 0.9462348 89.63412581 0.97485352 85.7355957 C0.98970291 84.49135834 0.98970291 84.49135834 1.00485229 83.22198486 C1.0364533 80.47874816 1.06121923 77.73549414 1.0859375 74.9921875 C1.10650823 73.0907496 1.12750474 71.18931626 1.14891052 69.28788757 C1.20411886 64.28200981 1.25353363 59.27609087 1.30175781 54.2701416 C1.35198185 49.16247897 1.40766321 44.05487618 1.46289062 38.94726562 C1.57045707 28.92453029 1.67190544 18.901743 1.76953125 8.87890625 C-1.20046875 7.88890625 -4.17046875 6.89890625 -7.23046875 5.87890625 C-7.23046875 4.22890625 -7.23046875 2.57890625 -7.23046875 0.87890625 C-4.35516794 -0.07952735 -2.93996944 -0.18765762 0 0 Z " fill="#5A1A1A" transform="translate(233.23046875,94.12109375)"/>
<path d="M0 0 C0.74886475 0.00523682 1.49772949 0.01047363 2.26928711 0.01586914 C3.07817383 0.0190918 3.88706055 0.02231445 4.72045898 0.02563477 C5.5705957 0.03401367 6.42073242 0.04239258 7.29663086 0.05102539 C8.15063477 0.05553711 9.00463867 0.06004883 9.88452148 0.06469727 C12.00108749 0.07652166 14.11761771 0.0944577 16.23413086 0.11352539 C17.71616865 3.07760098 17.35333912 5.73431704 17.34765625 9.04174805 C17.34780228 9.75405075 17.3479483 10.46635345 17.34809875 11.20024109 C17.34740097 13.55938745 17.33961483 15.91845528 17.33178711 18.27758789 C17.32992245 19.91140703 17.32849878 21.54522673 17.32749939 23.17904663 C17.32367795 27.48300719 17.31385084 31.7869341 17.30279541 36.09088135 C17.29257328 40.48123723 17.28800005 44.87159854 17.28295898 49.26196289 C17.27222825 57.87916585 17.25515629 66.49634144 17.23413086 75.11352539 C20.89302798 73.98687727 20.89302798 73.98687727 23.28881836 71.25415039 C23.60077148 70.54774414 23.91272461 69.84133789 24.23413086 69.11352539 C25.56187374 67.65247499 26.94044762 66.23644466 28.35913086 64.86352539 C29.08358398 64.15711914 29.80803711 63.45071289 30.55444336 62.72290039 C31.10874023 62.19180664 31.66303711 61.66071289 32.23413086 61.11352539 C31.57413086 60.45352539 30.91413086 59.79352539 30.23413086 59.11352539 C30.56413086 57.46352539 30.89413086 55.81352539 31.23413086 54.11352539 C40.14413086 54.11352539 49.05413086 54.11352539 58.23413086 54.11352539 C58.72913086 56.58852539 58.72913086 56.58852539 59.23413086 59.11352539 C57.5758352 60.77182105 55.45072138 60.31630301 53.17163086 60.42602539 C44.37639857 61.17794939 38.97650897 64.53079926 33.23413086 71.11352539 C32.73913086 72.59852539 32.73913086 72.59852539 32.23413086 74.11352539 C32.89413086 74.11352539 33.55413086 74.11352539 34.23413086 74.11352539 C35.71459961 75.61743164 35.71459961 75.61743164 37.42163086 77.67602539 C40.42090579 81.22348713 43.57408218 84.47875411 46.94897461 87.66821289 C48.23413086 89.11352539 48.23413086 89.11352539 48.23413086 91.11352539 C48.89413086 91.11352539 49.55413086 91.11352539 50.23413086 91.11352539 C50.23413086 91.77352539 50.23413086 92.43352539 50.23413086 93.11352539 C52.21413086 93.11352539 54.19413086 93.11352539 56.23413086 93.11352539 C56.56413086 92.45352539 56.89413086 91.79352539 57.23413086 91.11352539 C59.17163086 90.36352539 59.17163086 90.36352539 61.23413086 90.11352539 C61.89413086 90.77352539 62.55413086 91.43352539 63.23413086 92.11352539 C63.0178363 96.98015296 61.54464436 99.60237471 58.23413086 103.11352539 C54.6789243 104.89112867 51.09607141 104.88222375 47.23413086 104.11352539 C44.16720628 102.14117562 41.73284632 99.75357091 39.23413086 97.11352539 C38.66436523 96.5837207 38.09459961 96.05391602 37.50756836 95.50805664 C36.23413086 94.11352539 36.23413086 94.11352539 36.23413086 92.11352539 C35.57413086 92.11352539 34.91413086 92.11352539 34.23413086 92.11352539 C34.23413086 91.45352539 34.23413086 90.79352539 34.23413086 90.11352539 C33.24413086 89.78352539 32.25413086 89.45352539 31.23413086 89.11352539 C31.23413086 88.45352539 31.23413086 87.79352539 31.23413086 87.11352539 C30.57413086 87.11352539 29.91413086 87.11352539 29.23413086 87.11352539 C27.51976906 85.15425476 25.85007918 83.15472327 24.23413086 81.11352539 C20.88505372 83.26912107 20.88505372 83.26912107 18.23413086 86.11352539 C17.71144471 89.17790108 17.87204633 92.03580686 18.23413086 95.11352539 C20.21413086 95.77352539 22.19413086 96.43352539 24.23413086 97.11352539 C24.27685186 98.77964444 24.27476918 100.44735424 24.23413086 102.11352539 C21.64457929 104.70307696 14.28235483 103.29911331 10.79663086 103.30102539 C9.62551758 103.31327148 8.4544043 103.32551758 7.24780273 103.33813477 C6.13083008 103.34006836 5.01385742 103.34200195 3.86303711 103.34399414 C2.83251221 103.34810303 1.8019873 103.35221191 0.74023438 103.35644531 C-1.76586914 103.11352539 -1.76586914 103.11352539 -3.76586914 101.11352539 C-3.76586914 99.11352539 -3.76586914 99.11352539 -2.76586914 97.11352539 C-0.77863646 96.40971382 1.22191038 95.74234429 3.23413086 95.11352539 C4.43369286 91.51483939 4.37389613 88.2377503 4.36352539 84.49267578 C4.36527771 83.71837723 4.36703003 82.94407867 4.36883545 82.14631653 C4.37323967 79.58458215 4.3703207 77.02291673 4.36694336 74.46118164 C4.36761688 72.68143195 4.36858731 70.90168236 4.36984253 69.12193298 C4.37131762 65.39036178 4.36917124 61.65881451 4.36450195 57.92724609 C4.35880892 53.14438754 4.36208217 48.36158516 4.36807442 43.57872868 C4.37168863 39.90274126 4.3705374 36.22676716 4.36794662 32.55077934 C4.36727953 30.78732738 4.36809821 29.02387421 4.37042618 27.26042366 C4.37296632 24.79483977 4.36909265 22.32934667 4.36352539 19.86376953 C4.36554962 19.13480469 4.36757385 18.40583984 4.36965942 17.65478516 C4.45997158 12.76433039 4.45997158 12.76433039 3.23413086 8.11352539 C-0.25384402 6.32081148 -0.25384402 6.32081148 -3.76586914 5.11352539 C-2.64966679 0.17034357 -2.64966679 0.17034357 0 0 Z " fill="#5A1A1A" transform="translate(492.765869140625,94.886474609375)"/>
<path d="M0 0 C2.97922593 -0.02683987 5.95821295 -0.04676037 8.9375 -0.0625 C9.78763672 -0.07087891 10.63777344 -0.07925781 11.51367188 -0.08789062 C12.32255859 -0.09111328 13.13144531 -0.09433594 13.96484375 -0.09765625 C14.7137085 -0.10289307 15.46257324 -0.10812988 16.23413086 -0.11352539 C18 0 18 0 19 1 C19.09443335 3.30053835 19.11742128 5.60402173 19.11352539 7.90649414 C19.11367142 8.62840439 19.11381744 9.35031464 19.1139679 10.09410095 C19.11326869 12.49114947 19.10547595 14.88812123 19.09765625 17.28515625 C19.0957921 18.94282489 19.09436818 20.60049407 19.09336853 22.25816345 C19.08954312 26.62954214 19.07971265 31.00088781 19.06866455 35.37225342 C19.05845092 39.82954461 19.05387101 44.28684111 19.04882812 48.74414062 C19.0380904 57.49610893 19.02101371 66.24805036 19 75 C19.61875 74.505 20.2375 74.01 20.875 73.5 C23 72 23 72 25 72 C25.495 70.515 25.495 70.515 26 69 C26.66 69 27.32 69 28 69 C28 68.34 28 67.68 28 67 C28.66 67 29.32 67 30 67 C30 66.34 30 65.68 30 65 C30.66 65 31.32 65 32 65 C32.66 63.35 33.32 61.7 34 60 C33.01 59.505 33.01 59.505 32 59 C32.33 57.35 32.66 55.7 33 54 C41.91 54 50.82 54 60 54 C60.495 56.475 60.495 56.475 61 59 C59.34170434 60.65829566 57.21659052 60.20277762 54.9375 60.3125 C47.75005291 60.92697087 42.79804386 63.12184773 37.5 68 C34.5732104 70.86129338 34.5732104 70.86129338 35 75 C35.66 75 36.32 75 37 75 C38.375 76.3984375 38.375 76.3984375 40 78.375 C42.95729411 81.84067591 46.00803937 85.17350422 49.1875 88.4375 C50.00605469 89.28183594 50.82460938 90.12617188 51.66796875 90.99609375 C53.91328687 92.92548771 55.11218579 93.63487407 58 94 C58 93.34 58 92.68 58 92 C60.97 91.01 60.97 91.01 64 90 C64.2115583 95.50051568 64.11770162 98.62817419 60.4375 102.75 C56.58879802 104.72369332 53.21632977 104.94937227 49 104 C42.22743166 99.96747839 37.15828744 92.83882632 32 87 C30.38249366 85.20187881 28.81786354 83.60399724 27 82 C23.99794223 81.72837436 23.99794223 81.72837436 21.875 83.375 C19.07998546 87.28802036 19.17969231 91.29206145 19 96 C22.465 96.495 22.465 96.495 26 97 C26.625 98.875 26.625 98.875 27 101 C25 103 25 103 22.47802734 103.22705078 C20.92269287 103.21134033 20.92269287 103.21134033 19.3359375 103.1953125 C18.21445312 103.18886719 17.09296875 103.18242187 15.9375 103.17578125 C14.761875 103.15902344 13.58625 103.14226562 12.375 103.125 C11.19164062 103.11597656 10.00828125 103.10695313 8.7890625 103.09765625 C5.85917477 103.07402812 2.9296866 103.04108514 0 103 C-0.495 100.525 -0.495 100.525 -1 98 C1.31 97.01 3.62 96.02 6 95 C6 66.29 6 37.58 6 8 C3.69 7.01 1.38 6.02 -1 5 C-0.67 3.35 -0.34 1.7 0 0 Z " fill="#5A1A1A" transform="translate(711,95)"/>
<path d="M0 0 C3.81558244 2.88020908 5.03465564 5.45223192 6.234375 9.96484375 C6.52148438 13.06103516 6.52148438 13.06103516 6.578125 16.31640625 C6.60777344 17.4971875 6.63742187 18.67796875 6.66796875 19.89453125 C6.71237993 22.3658829 6.75664988 24.83723709 6.80078125 27.30859375 C6.83042969 28.48679688 6.86007812 29.665 6.890625 30.87890625 C6.91866211 32.48693115 6.91866211 32.48693115 6.94726562 34.12744141 C7.2338023 36.95918396 7.61526559 38.63686716 9.234375 40.96484375 C10.7503125 41.45984375 10.7503125 41.45984375 12.296875 41.96484375 C15.234375 42.96484375 15.234375 42.96484375 16.234375 44.96484375 C16.234375 45.62484375 16.234375 46.28484375 16.234375 46.96484375 C13.88207148 49.31714727 13.42734206 49.22046378 10.2421875 49.23046875 C9.45457031 49.23304688 8.66695313 49.235625 7.85546875 49.23828125 C7.03175781 49.23054688 6.20804687 49.2228125 5.359375 49.21484375 C4.13541016 49.22644531 4.13541016 49.22644531 2.88671875 49.23828125 C2.09652344 49.23570312 1.30632812 49.233125 0.4921875 49.23046875 C-0.2282373 49.22821289 -0.94866211 49.22595703 -1.69091797 49.22363281 C-3.765625 48.96484375 -3.765625 48.96484375 -5.81298828 47.83105469 C-6.4573584 47.54520508 -7.10172852 47.25935547 -7.765625 46.96484375 C-9.63448379 47.9660181 -11.50196948 48.9699214 -13.359375 49.9921875 C-19.17540654 52.3431483 -26.21653602 51.71815646 -32.140625 49.90234375 C-37.63394469 47.49901639 -41.53159002 42.43472311 -43.765625 36.96484375 C-44.60628378 31.82417813 -44.79855607 27.00689192 -42.41015625 22.28515625 C-37.86726203 16.16779317 -33.27746588 13.24439374 -25.765625 11.96484375 C-19.54978565 11.49435809 -14.03103057 11.18455257 -8.765625 14.96484375 C-7.328125 17.02734375 -7.328125 17.02734375 -6.765625 18.96484375 C-7.095625 19.62484375 -7.425625 20.28484375 -7.765625 20.96484375 C-8.9825 20.82046875 -10.199375 20.67609375 -11.453125 20.52734375 C-12.18789063 20.44097656 -12.92265625 20.35460937 -13.6796875 20.265625 C-15.765625 19.96484375 -15.765625 19.96484375 -18.328125 19.21484375 C-22.12870605 18.82504057 -24.47849048 20.13865791 -27.765625 21.96484375 C-30.79595929 25.38618892 -31.3013295 28.59900818 -31.1171875 33.03515625 C-30.53932182 36.20699675 -29.09988216 37.81985068 -26.765625 39.96484375 C-22.73752945 42.31456615 -18.33435316 42.72332401 -13.765625 41.96484375 C-11.10879311 40.46735668 -8.91909749 39.11831624 -6.765625 36.96484375 C-6.49983661 32.86840306 -6.49440092 28.76839411 -6.47045898 24.6640625 C-6.45324991 22.60479085 -6.40938068 20.54712672 -6.36523438 18.48828125 C-6.35266602 16.54695313 -6.35266602 16.54695313 -6.33984375 14.56640625 C-6.32526123 13.37354004 -6.31067871 12.18067383 -6.2956543 10.95166016 C-6.47752227 7.8797906 -6.47752227 7.8797906 -8.66235352 6.0793457 C-12.31725519 4.14265085 -15.74231475 4.33723378 -19.765625 4.96484375 C-21.95672615 5.8543769 -23.91847515 6.86845139 -25.94140625 8.08984375 C-27.765625 8.96484375 -27.765625 8.96484375 -31.765625 8.96484375 C-32.453125 6.71484375 -32.453125 6.71484375 -32.765625 3.96484375 C-31.21789851 1.12734518 -30.1554216 0.11960744 -27.12890625 -1.08203125 C-18.07196153 -3.16941928 -8.48579933 -4.97508146 0 0 Z " fill="#5A1A1A" transform="translate(355.765625,149.03515625)"/>
<path d="M0 0 C6.27 0 12.54 0 19 0 C19.33 31.68 19.66 63.36 20 96 C21.98 96.33 23.96 96.66 26 97 C26.66 97.33 27.32 97.66 28 98 C27.125 101.875 27.125 101.875 26 103 C24.14630389 103.08737645 22.28932459 103.10698153 20.43359375 103.09765625 C19.30888672 103.09443359 18.18417969 103.09121094 17.02539062 103.08789062 C15.84138672 103.07951172 14.65738281 103.07113281 13.4375 103.0625 C12.24962891 103.05798828 11.06175781 103.05347656 9.83789062 103.04882812 C6.89187774 103.03699675 3.94596319 103.02051287 1 103 C-0.0625 101.125 -0.0625 101.125 -1 99 C-0.505 98.01 -0.505 98.01 0 97 C3.465 96.505 3.465 96.505 7 96 C6.67 66.96 6.34 37.92 6 8 C4.02 7.01 2.04 6.02 0 5 C-0.33 4.01 -0.66 3.02 -1 2 C-0.67 1.34 -0.34 0.68 0 0 Z " fill="#5A1A1A" transform="translate(664,95)"/>
<path d="M0 0 C1.17755859 -0.01063477 1.17755859 -0.01063477 2.37890625 -0.02148438 C7.00709711 0.02924622 10.12245596 0.45152624 13.875 3.4375 C15.05806728 5.80363456 15.00854608 7.30530736 15 9.9375 C15.00386719 11.12859375 15.00386719 11.12859375 15.0078125 12.34375 C14.875 14.4375 14.875 14.4375 13.875 16.4375 C11.5 16.25 11.5 16.25 8.875 15.4375 C7.75 13.0625 7.75 13.0625 6.875 10.4375 C5.79166667 8.52083333 5.79166667 8.52083333 3.875 7.4375 C-0.37381273 7.0512443 -3.48469312 7.1077036 -7.125 9.4375 C-7.14417985 11.81443161 -7.14417985 11.81443161 -6.125 14.4375 C-3.88200031 16.00611435 -1.858659 17.22321842 0.5625 18.4375 C6.62722634 21.57508713 11.99412174 24.61618261 15.875 30.4375 C16.69850222 35.76475774 17.09167363 41.13739078 14.51953125 46 C11.19270424 49.99513001 8.12163069 52.64555575 2.875 53.4375 C-5.03691553 54.03061389 -12.10157836 53.94006921 -18.828125 49.25 C-20.80910399 46.48140286 -20.41188284 44.09588911 -20.3125 40.75 C-20.28542969 39.57050781 -20.25835938 38.39101562 -20.23046875 37.17578125 C-20.19566406 36.27214844 -20.16085937 35.36851562 -20.125 34.4375 C-18.145 33.9425 -18.145 33.9425 -16.125 33.4375 C-12.125 40.0625 -12.125 40.0625 -12.125 43.4375 C-9.13092177 45.16012035 -6.94750407 45.71056023 -3.5 45.6875 C-2.33597656 45.69523437 -2.33597656 45.69523437 -1.1484375 45.703125 C1.10188411 45.61665354 1.10188411 45.61665354 2.875 43.4375 C3.56340076 40.33665055 3.55589309 37.53934629 2.875 34.4375 C0.43483531 32.10578707 -1.20639609 30.94694979 -4.125 29.4375 C-17.07561021 22.63386956 -17.07561021 22.63386956 -19.125 18.4375 C-19.7769185 14.19226882 -19.58267258 10.64898625 -18.0625 6.625 C-12.86199026 0.75345674 -7.45327325 -0.19158497 0 0 Z " fill="#5A1A1A" transform="translate(595.125,146.5625)"/>
<path d="M0 0 C2.475 0.495 2.475 0.495 5 1 C5 10.57 5 20.14 5 30 C9.62 30 14.24 30 19 30 C19.495 31.98 19.495 31.98 20 34 C19.34 34.66 18.68 35.32 18 36 C13.71 36 9.42 36 5 36 C5.33 47.22 5.66 58.44 6 70 C7.485 70.495 7.485 70.495 9 71 C10.423125 70.01 10.423125 70.01 11.875 69 C15 67 15 67 17.875 67.25 C18.926875 67.62125 18.926875 67.62125 20 68 C19.5132738 72.27729087 18.42203651 74.02058516 15.125 76.75 C14.07699219 77.63945312 14.07699219 77.63945312 13.0078125 78.546875 C8.9928075 81.45267628 4.77535946 81.37624044 0 81 C-2.64649178 80.16426575 -3.60269501 79.5645913 -5.1875 77.3125 C-7.09276671 71.88981784 -7.12126997 66.22606339 -7.09765625 60.53515625 C-7.0962413 59.85698349 -7.09482635 59.17881073 -7.09336853 58.48008728 C-7.08782745 56.34084422 -7.07528653 54.20171075 -7.0625 52.0625 C-7.05747736 50.60091298 -7.0529158 49.13932431 -7.04882812 47.67773438 C-7.03787745 44.11845474 -7.02065445 40.55923809 -7 37 C-9.31 36.34 -11.62 35.68 -14 35 C-14.33 33.68 -14.66 32.36 -15 31 C-14.46890625 30.72027344 -13.9378125 30.44054687 -13.390625 30.15234375 C-12.68421875 29.75144531 -11.9778125 29.35054687 -11.25 28.9375 C-10.55390625 28.55464844 -9.8578125 28.17179687 -9.140625 27.77734375 C-4.13546763 23.62160177 -2.60276294 18.66380821 -1.98632812 12.43945312 C-1.92896484 11.69630859 -1.87160156 10.95316406 -1.8125 10.1875 C-1.0878483 2.17569659 -1.0878483 2.17569659 0 0 Z " fill="#5A1A1A" transform="translate(405,119)"/>
<path d="M0 0 C3.14581423 -0.02888514 6.29159469 -0.04675923 9.4375 -0.0625 C10.33533203 -0.07087891 11.23316406 -0.07925781 12.15820312 -0.08789062 C13.01220703 -0.09111328 13.86621094 -0.09433594 14.74609375 -0.09765625 C15.93223267 -0.10551147 15.93223267 -0.10551147 17.14233398 -0.11352539 C19 0 19 0 20 1 C20.08871273 4.02977804 20.1151935 7.03667022 20.09765625 10.06640625 C20.0962413 10.97502914 20.09482635 11.88365204 20.09336853 12.81980896 C20.08775193 15.73407221 20.07519665 18.64825981 20.0625 21.5625 C20.05748714 23.53320202 20.05292386 25.50390524 20.04882812 27.47460938 C20.03777711 32.31643559 20.02050138 37.15820495 20 42 C23.465 42.495 23.465 42.495 27 43 C27.33 43.99 27.66 44.98 28 46 C27.34 46.99 26.68 47.98 26 49 C23.50976562 49.35644531 23.50976562 49.35644531 20.40625 49.328125 C18.73755859 49.32039063 18.73755859 49.32039063 17.03515625 49.3125 C15.86855469 49.291875 14.70195312 49.27125 13.5 49.25 C12.33339844 49.24484375 11.16679687 49.2396875 9.96484375 49.234375 C1.30825708 49.15412854 1.30825708 49.15412854 -1 48 C-0.67 46.35 -0.34 44.7 0 43 C0.969375 42.71125 1.93875 42.4225 2.9375 42.125 C6.10664203 41.35785318 6.10664203 41.35785318 7 39 C7.24549809 34.37968468 7.18520758 29.75109643 7.1875 25.125 C7.19974609 23.83207031 7.21199219 22.53914063 7.22460938 21.20703125 C7.22654297 19.96566406 7.22847656 18.72429687 7.23046875 17.4453125 C7.23663208 15.73625732 7.23663208 15.73625732 7.24291992 13.99267578 C7.00416299 11.05128639 6.6902781 9.39790951 5 7 C1.95800528 5.70768358 1.95800528 5.70768358 -1 5 C-0.67 3.35 -0.34 1.7 0 0 Z " fill="#5A1A1A" transform="translate(444,149)"/>
<path d="M0 0 C0.98283662 2.94850985 1.33239385 5.69430196 1.6796875 8.76953125 C2.00090285 11.00628693 2.50455753 13.12395103 3.0625 15.3125 C4.11374492 19.74000596 4.08693299 23.89180737 3.875 28.421875 C4.01573974 31.32463208 4.89859924 33.33138867 6 36 C5.76160848 40.52943896 5.27243307 43.72756693 2 47 C1.34 47 0.68 47 0 47 C0 47.66 0 48.32 0 49 C-0.66 49 -1.32 49 -2 49 C-1.79375 48.0925 -1.5875 47.185 -1.375 46.25 C-0.70281078 43.12927989 -0.70281078 43.12927989 -2 41.125 C-3.57721964 37.77340826 -2.77597141 34.49892562 -2 31 C-1.62875 30.195625 -1.2575 29.39125 -0.875 28.5625 C0.49227359 24.55834163 0.18978516 21.03989197 -1 17 C-2.42323077 14.72519625 -3.95742141 12.74516046 -5.72265625 10.7265625 C-7 9 -7 9 -7 6 C-6.401875 5.938125 -5.80375 5.87625 -5.1875 5.8125 C-2.12856542 4.6763243 -1.44958901 2.82669858 0 0 Z " fill="#5A1A1A" transform="translate(186,131)"/>
<path d="M0 0 C2 1 2 1 3.25 3.6875 C4.13647178 7.60275037 3.71398956 9.40878378 2 13 C-1.51253146 15.34168764 -2.86469356 15.49623677 -7 15 C-9.875 13.5 -9.875 13.5 -12 11 C-12.8316352 6.73894128 -12.44396979 3.66595469 -10 0 C-6.27762318 -1.24079227 -3.82468076 -0.6953965 0 0 Z " fill="#5A1A1A" transform="translate(462,125)"/>
<path d="M0 0 C3.0625 1.375 3.0625 1.375 5.0625 3.625 C6.38661574 7.26631828 5.67391965 8.92195788 4.0625 12.375 C2.0625 14.375 2.0625 14.375 -1.3125 14.75 C-4.9375 14.375 -4.9375 14.375 -7.375 12.75 C-9.40911336 9.65814769 -9.54355429 8.01132575 -8.9375 4.375 C-6.16864091 0.96007379 -4.45521099 -0.94791723 0 0 Z " fill="#5A1A1A" transform="translate(638.9375,184.625)"/>
<path d="M0 0 C1.1446875 0.2475 1.1446875 0.2475 2.3125 0.5 C5.0504374 1.0093837 6.38262452 0.72203461 9 0 C9.66 0.33 10.32 0.66 11 1 C11.3125 3.1875 11.3125 3.1875 11 6 C8.6875 8.8125 8.6875 8.8125 6 11 C3 11 3 11 0.25 8.8125 C-2 6 -2 6 -1.875 3.25 C-1 1 -1 1 0 0 Z " fill="#5A1A1A" transform="translate(117,110)"/>
</svg>
